<svg id="_x33_0" enable-background="new 0 0 62 62" height="512" viewBox="0 0 62 62" width="512" xmlns="http://www.w3.org/2000/svg"><g><g><g><path d="m61 4v5h-24.49-.01c-.17-.31-.39-.6-.64-.86-.26-.25-.55-.47-.86-.64v-3.5c0-1.66 1.34-3 3-3h20c1.66 0 3 1.34 3 3z" fill="#969faa"/></g><g><path d="m42.76 45.59c.41.41.59.92.59 1.41h-.01-5.34c-.75 0-1.44-.28-1.97-.73.62-.94.97-2.06.97-3.27v-4c1.1 0 2.1-.45 2.83-1.17.24-.25.46-.53.63-.83h.54 5 4 5 6v7c0 1.43-1 2.63-2.35 2.93.01-.46.19-.94.59-1.34l.25-.25-2.83-2.83-.25.25c-1.26 1.26-3.41.36-3.41-1.42v-.34h-4v.34c0 1.78-2.15 2.68-3.41 1.42l-.25-.25-2.83 2.83z" fill="#969faa"/></g><g><path d="m44.46 27.54 1.37.97-.83 2.49c-.93.31-1.74.86-2.36 1.56-.63.71-1.07 1.58-1.26 2.54l-.38 1.9h-.54l.54-2c0-2.21-1.79-4-4-4 0-2.81-.72-5.45-2-7.75v-8.3c1.22-.93 2-2.39 2-4.04 0-.69-.18-1.34-.49-1.91h24.49v28h-6l-.38-1.9c-.19-.96-.63-1.83-1.26-2.54-.62-.7-1.43-1.25-2.36-1.56l-.83-2.49c1.68-.81 2.83-2.53 2.83-4.51l1.4-2.8c.4-.79.6-1.66.6-2.54 0-3.12-2.54-5.66-5.66-5.66h-2.68c-1.56 0-2.98.64-4 1.66s-1.66 2.44-1.66 4c0 .88.2 1.75.6 2.54l1.4 2.8c0 1.38.56 2.63 1.46 3.54z" fill="#69d6f4"/></g><g><path d="m6.42 7.31.2-.77c.4-1.63 1.34-3.02 2.59-3.99 1.25-.98 2.82-1.55 4.5-1.55 1.49 0 2.95.44 4.2 1.27l1.09.73 1.09-.73c1.25-.83 2.71-1.27 4.2-1.27 3.36 0 6.28 2.28 7.09 5.54l.2.77c.47-.2.98-.31 1.51-.31.69 0 1.34.18 1.91.5.31.17.6.39.86.64.25.26.47.55.64.86h.01c.31.57.49 1.22.49 1.91 0 1.65-.78 3.11-2 4.04-.85.66-1.92 1.05-3.09 1.05h-5.33c-1.73-.65-3.62-1-5.58-1s-3.85.35-5.58 1h-9.33c-2.81 0-5.09-2.28-5.09-5.09 0-1.08.44-2.06 1.14-2.77.71-.7 1.69-1.14 2.77-1.14.53 0 1.04.11 1.51.31z" fill="#e6e9ed"/></g><g><path d="m49 33 1 4h-4l1-4z" fill="#ff826e"/></g><g><path d="m49 33 2-2c.93.31 1.74.86 2.36 1.56.63.71 1.07 1.58 1.26 2.54l.38 1.9h-5z" fill="#e6e9ed"/></g><g><path d="m47 33-1 4h-5l.38-1.9c.19-.96.63-1.83 1.26-2.54.62-.7 1.43-1.25 2.36-1.56z" fill="#e6e9ed"/></g><g><path d="m45.83 28.51 2.17.49c.78 0 1.52-.18 2.17-.49l.83 2.49-2 2h-2l-2-2z" fill="#f0d0b4"/></g><g><path d="m51.74 20.5-3.74-1.5-3.74 1.5c-.76.3-1.26 1.04-1.26 1.85v1.65l-1.4-2.8c-.4-.79-.6-1.66-.6-2.54 0-1.56.64-2.98 1.66-4s2.44-1.66 4-1.66h2.68c3.12 0 5.66 2.54 5.66 5.66 0 .88-.2 1.75-.6 2.54l-1.4 2.8v-1.65c0-.81-.5-1.55-1.26-1.85z" fill="#b27946"/></g><g><path d="m53 24c0 1.98-1.15 3.7-2.83 4.51-.65.31-1.39.49-2.17.49l-2.17-.49-1.37-.97c-.9-.91-1.46-2.16-1.46-3.54v-1.65c0-.81.5-1.55 1.26-1.85l3.74-1.5 3.74 1.5c.76.3 1.26 1.04 1.26 1.85z" fill="#f0d0b4"/></g><g><path d="m45.59 42.76c1.26 1.26 3.41.36 3.41-1.42v-.34h4v.34c0 1.78 2.15 2.68 3.41 1.42l.25-.25 2.83 2.83-.25.25c-.4.4-.58.88-.59 1.34-.02 1.05.78 2.07 2.01 2.07h.34v4h-.34c-1.78 0-2.68 2.15-1.42 3.41l.25.25-2.83 2.83-.25-.25c-1.26-1.26-3.41-.36-3.41 1.42v.34h-4v-.34c0-1.78-2.15-2.68-3.41-1.42l-.25.25-2.83-2.83.25-.25c1.26-1.26.36-3.41-1.42-3.41h-.34v-4h.34c1.2 0 2-.97 2.01-2 0-.49-.18-1-.59-1.41l-.25-.25 2.83-2.83zm-.59 8.24c0 3.31 2.69 6 6 6s6-2.69 6-6-2.69-6-6-6-6 2.69-6 6z" fill="#ffc729"/></g><g><path d="m51 45c3.31 0 6 2.69 6 6s-2.69 6-6 6-6-2.69-6-6 2.69-6 6-6zm2 6c0-1.1-.9-2-2-2s-2 .9-2 2 .9 2 2 2 2-.9 2-2z" fill="#fcd770"/></g><g><path d="m27 61h-12-4v-1.92c0-3.51 2.54-6.5 6-7.08l1.41 2.11c.37.56.99.89 1.66.89h1.86c.67 0 1.29-.33 1.66-.89l1.41-2.11c1.73.29 3.23 1.18 4.3 2.44 1.06 1.26 1.7 2.88 1.7 4.64v1.92z" fill="#ff826e"/></g><g><path d="m24.21 48.84.79 3.16-1.41 2.11c-.37.56-.99.89-1.66.89h-1.86c-.67 0-1.29-.33-1.66-.89l-1.41-2.11.85-3.42c1 .28 2.06.42 3.15.42.99 0 1.95-.12 2.87-.35.11.07.22.14.34.19z" fill="#f0d0b4"/></g><g><path d="m32.37 27.16-7.37 1.84-4 1-4-1-7.37-1.84c-.41 1.2-.63 2.49-.63 3.84v6c0 .68.06 1.35.17 2 .11.69.28 1.36.51 2h.01 3.31c1.1 0 2 .9 2 2v4.39.01c.88.51 1.84.91 2.85 1.18 1 .28 2.06.42 3.15.42.99 0 1.95-.12 2.87-.35-.52-.36-.87-.97-.87-1.65 0-.55.22-1.05.59-1.41.36-.37.86-.59 1.41-.59.73 0 1.41.2 2 .56v-2.56c0-.14.01-.27.04-.4.19-.91 1-1.6 1.96-1.6h3.31c.23-.64.41-1.31.52-2 .11-.65.17-1.32.17-2v-6c0-1.35-.22-2.64-.63-3.84z" fill="#e6e9ed"/></g><g><path d="m25 41-.27 1.09c-.03.11-.06.21-.09.31-.53 1.55-1.99 2.6-3.64 2.6-1.76 0-3.3-1.2-3.73-2.91l-.27-1.09h4z" fill="#ff826e"/></g><g><path d="m37 31v8h-4.17c.11-.65.17-1.32.17-2v-6z" fill="#ccd1d9"/></g><g><path d="m9.17 39h-4.17v-8h4v6c0 .68.06 1.35.17 2z" fill="#ccd1d9"/></g><g><path d="m37 31h-4c0-1.35-.22-2.64-.63-3.84-.59-1.77-1.59-3.36-2.88-4.65-1.25-1.25-2.78-2.23-4.49-2.82v-.01c-1.25-.44-2.6-.68-4-.68s-2.75.24-4 .68v.01c-3.46 1.21-6.2 3.98-7.37 7.47-.41 1.2-.63 2.49-.63 3.84h-4c0-6.88 4.33-12.74 10.42-15 1.73-.65 3.62-1 5.58-1s3.85.35 5.58 1c2.18.81 4.13 2.07 5.74 3.68 1.05 1.06 1.96 2.26 2.68 3.57 1.28 2.3 2 4.94 2 7.75z" fill="#aab2bd"/></g><g><path d="m5 31v8c-1.1 0-2.1-.45-2.83-1.17-.72-.73-1.17-1.73-1.17-2.83 0-2.21 1.79-4 4-4z" fill="#aab2bd"/></g><g><path d="m41 35-.54 2c-.17.3-.39.58-.63.83-.73.72-1.73 1.17-2.83 1.17v-8c2.21 0 4 1.79 4 4z" fill="#aab2bd"/></g><g><path d="m28.73 47.91.27 1.09h-4c-.28 0-.55-.06-.79-.16-.12-.05-.23-.12-.34-.19-.52-.36-.87-.97-.87-1.65 0-.55.22-1.05.59-1.41.36-.37.86-.59 1.41-.59.73 0 1.41.2 2 .56l.36.25c.3.23.56.51.78.83.27.37.47.8.59 1.27z" fill="#aab2bd"/></g><g><path d="m32.31 41c-.8 2.27-2.26 4.23-4.16 5.64h-.01c-.22-.32-.48-.6-.78-.83l-.36-.25v-2.56c0-.14.01-.27.04-.4.19-.91 1-1.6 1.96-1.6z" fill="#969faa"/></g><g><path d="m15 43v4.39.01c-.91-.53-1.75-1.17-2.49-1.91-1.25-1.25-2.23-2.78-2.82-4.49h3.31c1.1 0 2 .9 2 2z" fill="#969faa"/></g><g><circle cx="27" cy="35" fill="#969faa" r="2"/></g><g><circle cx="15" cy="35" fill="#969faa" r="2"/></g><g><path d="m32.37 27.16-7.37 1.84v-9.31c1.71.59 3.24 1.57 4.49 2.82 1.29 1.29 2.29 2.88 2.88 4.65z" fill="#ffeaa7"/></g><g><path d="m17 19.69v9.31l-7.37-1.84c1.17-3.49 3.91-6.26 7.37-7.47z" fill="#ffeaa7"/></g><g><path d="m25 29-4 1-4-1v-9.31-.01c1.25-.44 2.6-.68 4-.68s2.75.24 4 .68v.01z" fill="#fcd770"/></g></g><g><path d="m51 48c-1.654 0-3 1.346-3 3s1.346 3 3 3 3-1.346 3-3-1.346-3-3-3zm0 4c-.551 0-1-.449-1-1s.449-1 1-1 1 .449 1 1-.449 1-1 1z"/><path d="m51 44c-3.86 0-7 3.14-7 7s3.14 7 7 7 7-3.14 7-7-3.14-7-7-7zm0 12c-2.757 0-5-2.243-5-5s2.243-5 5-5 5 2.243 5 5-2.243 5-5 5z"/><path d="m18 35c0-1.654-1.346-3-3-3s-3 1.346-3 3 1.346 3 3 3 3-1.346 3-3zm-3 1c-.551 0-1-.449-1-1s.449-1 1-1 1 .449 1 1-.449 1-1 1z"/><path d="m27 38c1.654 0 3-1.346 3-3s-1.346-3-3-3-3 1.346-3 3 1.346 3 3 3zm0-4c.551 0 1 .449 1 1s-.449 1-1 1-1-.449-1-1 .449-1 1-1z"/><path d="m20 26h2v2h-2z"/><path d="m20 22h2v2h-2z"/><path d="m12 8h2v2h-2z"/><path d="m18 8h2v2h-2z"/><path d="m24 8h2v2h-2z"/><path d="m62 44v-40c0-2.206-1.794-4-4-4h-20c-2.206 0-4 1.794-4 4v2.092c-.295-.056-.597-.092-.908-.092-.272 0-.539.03-.802.074-1.003-3.586-4.255-6.074-7.998-6.074-1.697 0-3.341.498-4.753 1.439l-.539.359-.539-.359c-1.412-.941-3.055-1.439-4.753-1.439-3.743 0-6.995 2.488-7.997 6.074-.264-.044-.531-.074-.803-.074-2.706 0-4.908 2.202-4.908 4.908 0 3.359 2.733 6.092 6.092 6.092h5.286c-4.217 2.907-7.044 7.669-7.332 13.096-2.302.448-4.046 2.474-4.046 4.904 0 2.757 2.243 5 5 5h3.363c1.022 4.302 4.182 7.775 8.296 9.239l-.478 1.91c-3.618.906-6.181 4.143-6.181 7.934v2.917h22v-2.917c0-3.791-2.563-7.027-6.182-7.933l-.287-1.15h5.469c2.103 0 3.988-.937 5.272-2.41.537.258 1.123.41 1.728.41h2v6h1.343c.62 0 .864.472.924.617s.222.651-.217 1.09l-.95.95 4.243 4.243.95-.95c.439-.439.945-.277 1.09-.217s.617.304.617.924v1.343h6v-1.343c0-.62.472-.864.617-.924.145-.061.651-.223 1.09.217l.95.95 4.243-4.243-.95-.95c-.438-.438-.277-.945-.217-1.09s.304-.617.924-.617h1.343v-6h-1.343c-.461 0-.713-.261-.837-.454 1.303-.673 2.18-2.025 2.18-3.546zm-18.114-24.432c-.593.237-1.074.647-1.404 1.157-.314-.639-.482-1.35-.482-2.062 0-2.571 2.092-4.663 4.663-4.663h2.674c2.571 0 4.663 2.092 4.663 4.663 0 .712-.168 1.424-.482 2.062-.329-.509-.81-.919-1.404-1.156l-4.114-1.646zm.114 2.786c0-.411.247-.776.629-.928l3.371-1.349 3.371 1.349c.382.152.629.517.629.928v1.646c0 2.206-1.794 4-4 4s-4-1.794-4-4zm4 7.646c.534 0 1.05-.077 1.543-.209l.313.939-1.27 1.27h-1.172l-1.27-1.27.313-.939c.493.132 1.009.209 1.543.209zm-3.238 2.176 1.13 1.13-.673 2.694h-2.999l.141-.703c.272-1.364 1.171-2.516 2.401-3.121zm3.019 1.824h.438l.5 2h-1.438zm3 2-.673-2.693 1.13-1.13c1.23.605 2.129 1.756 2.402 3.121l.14.702zm5.039 0-.219-1.095c-.418-2.095-1.855-3.843-3.802-4.671l-.425-1.276c1.516-1.035 2.528-2.746 2.613-4.695l1.31-2.62c.46-.92.703-1.951.703-2.979 0-3.675-2.989-6.664-6.663-6.664h-2.674c-3.674 0-6.663 2.989-6.663 6.663 0 1.029.243 2.059.703 2.98l1.31 2.62c.085 1.949 1.097 3.661 2.613 4.695l-.425 1.276c-1.17.498-2.149 1.332-2.841 2.369-.704-1.276-1.932-2.22-3.406-2.507-.135-2.547-.816-4.949-1.954-7.08v-7.609c1.225-1.115 2-2.717 2-4.5 0-.311-.036-.613-.092-.908h22.092v26h-4.18zm-21.82 1v-5h2v6h-2.06c.026-.333.06-.664.06-1zm-3.378-20h1.286c.736 0 1.438-.138 2.092-.378v3.446c-.983-1.167-2.119-2.2-3.378-3.068zm7.378 15.184c1.161.414 2 1.514 2 2.816s-.839 2.402-2 2.816zm-2-28.184c0-1.103.897-2 2-2h20c1.103 0 2 .897 2 2v4h-22.976c-.29-.39-.634-.734-1.024-1.024zm-29.908 11c-2.257 0-4.092-1.835-4.092-4.092 0-1.603 1.305-2.908 2.908-2.908.975 0 1.879.484 2.42 1.295l.84 1.26 1.664-1.109-.84-1.26c-.376-.565-.861-1.029-1.411-1.387l.005-.018c.703-2.815 3.221-4.781 6.122-4.781 1.301 0 2.561.381 3.644 1.103l1.648 1.099 1.648-1.099c1.082-.722 2.343-1.103 3.644-1.103 2.901 0 5.419 1.966 6.123 4.78l.005.019c-.55.358-1.035.822-1.411 1.387l-.84 1.26 1.664 1.109.84-1.26c.539-.811 1.444-1.295 2.419-1.295 1.603 0 2.908 1.305 2.908 2.908 0 2.257-1.835 4.092-4.092 4.092h-5.219c-1.782-.636-3.692-1-5.689-1s-3.907.364-5.689 1zm14.908 1c7.933 0 14.431 6.195 14.949 14h-2c-.513-6.701-6.118-12-12.949-12s-12.436 5.299-12.949 12h-2c.518-7.805 7.016-14 14.949-14zm7.239 29.262c-.081-.073-.154-.153-.239-.221v-2.041c0-.551.449-1 1-1h1.807c-.627 1.228-1.498 2.328-2.568 3.262zm3.761-14.262v6c0 1.035-.156 2.038-.426 3h-2.574c-1.654 0-3 1.346-3 3v1.116c-.325-.069-.657-.116-1-.116-.035 0-.068.009-.102.01.362-.494.644-1.055.8-1.678l.583-2.332h-4.281v-9.219l9.667-2.417c.21.846.333 1.726.333 2.636zm-9.837 16.93c-.386.041-.774.07-1.163.07-1.801 0-3.498-.444-5-1.214v-3.786c0-1.654-1.346-3-3-3h-2.574c-.271-.955-.426-1.959-.426-3v-6c0-.91.123-1.79.333-2.636l9.667 2.417v9.219h-4.281l.583 2.332c.54 2.16 2.472 3.668 4.698 3.668.43 0 .842-.072 1.242-.178-.155.362-.242.76-.242 1.178 0 .327.066.636.163.93zm8.848-21.464-5.011 1.253v-6.505c2.207 1.133 3.98 2.987 5.011 5.252zm-7.011 1.753-3 .75-3-.75v-7.793c.955-.271 1.959-.426 3-.426s2.045.155 3 .426zm-3 15.781c-1.253 0-2.348-.814-2.714-2h5.429c-.367 1.186-1.462 2-2.715 2zm-5-16.281-5.011-1.253c1.03-2.266 2.803-4.119 5.011-5.252zm-14 7.281c0-1.302.839-2.402 2-2.816v5.631c-1.161-.413-2-1.513-2-2.815zm4 3v-6h2v5c0 .338.025.669.051 1zm5.214 4h1.786c.551 0 1 .449 1 1v2.479c-1.151-.953-2.098-2.139-2.786-3.479zm9.786 8c.811 0 1.615-.098 2.408-.247l.515 2.06-1.161 1.741c-.186.279-.497.446-.832.446h-1.86c-.335 0-.646-.167-.832-.445l-1.161-1.741.512-2.047c.783.147 1.587.233 2.411.233zm9 9.083v.917h-2v-1.586c0-.635.258-1.258.707-1.707l-1.414-1.414c-.834.833-1.293 1.942-1.293 3.121v1.586h-10v-1.586c0-1.179-.459-2.288-1.293-3.121l-1.414 1.414c.449.449.707 1.072.707 1.707v1.586h-2v-.917c0-2.822 1.89-5.214 4.56-5.939l1.014 1.521c.558.835 1.491 1.335 2.496 1.335h1.859c1.005 0 1.938-.5 2.496-1.336l1.014-1.521c2.671.726 4.561 3.118 4.561 5.94zm-5-11.083c-.551 0-1-.449-1-1s.449-1 1-1c1.253 0 2.348.814 2.714 2zm6 0h-1.219l-.083-.332c-.069-.277-.163-.542-.275-.795 2.101-1.798 3.585-4.211 4.222-6.873h2.355v3c0 2.757-2.243 5-5 5zm7-2c-.218 0-.43-.04-.633-.108.403-.883.633-1.86.633-2.892v-3.101c1.213-.247 2.253-.946 2.974-1.899h19.026v6c0 .137-.018.269-.044.399l-3.299-3.299-.95.95c-.439.439-.945.276-1.09.217-.145-.06-.617-.304-.617-.924v-1.343h-6v1.343c0 .62-.472.864-.617.924-.146.059-.652.221-1.09-.217l-.95-.95-4.243 4.243.657.657zm22 3.931v2.139c-.947.204-1.728.849-2.115 1.783s-.291 1.941.235 2.756l-1.512 1.512c-.815-.526-1.824-.622-2.756-.235-.934.387-1.579 1.167-1.783 2.115h-2.139c-.204-.947-.849-1.728-1.783-2.115-.933-.386-1.941-.291-2.756.235l-1.512-1.512c.526-.814.622-1.822.235-2.756s-1.167-1.579-2.115-1.783v-2.139c.947-.204 1.728-.849 2.115-1.783s.291-1.941-.235-2.756l1.512-1.512c.814.525 1.823.622 2.756.235.934-.387 1.579-1.167 1.783-2.115h2.139c.204.947.849 1.728 1.783 2.115.934.388 1.941.291 2.756-.235l1.512 1.512c-.526.814-.622 1.822-.235 2.756s1.168 1.579 2.115 1.783z"/><path d="m44 4h8v2h-8z"/></g></g></svg>